<?xml version="1.0" standalone="no"?>
<!DOCTYPE svg PUBLIC "-//W3C//DTD SVG 20010904//EN"
 "http://www.w3.org/TR/2001/REC-SVG-20010904/DTD/svg10.dtd">
<svg version="1.0" xmlns="http://www.w3.org/2000/svg"
 width="250.000000pt" height="227.000000pt" viewBox="0 0 250.000000 227.000000"
 preserveAspectRatio="xMidYMid meet">
<metadata>
Created by potrace 1.12, written by Peter Selinger 2001-2015
</metadata>
<g transform="translate(0.000000,227.000000) scale(0.100000,-0.100000)"
fill="#000000" stroke="none">
<path d="M1045 2184 l-200 -85 -251 1 -251 1 -170 -358 c-93 -197 -169 -360
-167 -361 1 -2 96 45 211 105 114 59 210 109 213 111 4 1 23 -55 43 -125 l37
-128 0 -337 0 -337 28 -3 c24 -3 17 -9 -66 -63 -105 -68 -392 -254 -419 -272
-17 -11 -17 -11 2 -7 11 2 220 40 465 84 245 44 467 84 495 89 27 5 50 9 51 8
1 -1 41 -113 90 -249 49 -137 91 -248 94 -248 3 0 45 112 94 250 82 226 92
249 110 245 12 -3 235 -43 496 -90 261 -47 484 -87 494 -89 28 -7 22 -3 -254
175 -214 138 -251 165 -227 167 l27 3 0 337 -1 337 38 128 c20 70 40 126 43
125 3 -2 99 -52 213 -111 115 -60 210 -107 211 -105 2 1 -74 164 -168 361
l-170 359 -240 -7 -241 -7 -197 86 c-109 46 -206 87 -215 90 -10 3 -107 -33
-218 -80z m151 -33 c-6 -10 24 -25 32 -16 3 3 0 5 -6 5 -7 0 -12 5 -12 11 0 8
5 8 15 -1 8 -7 15 -10 15 -6 0 4 14 0 30 -9 35 -18 37 -21 11 -21 -11 0 -18 3
-15 7 2 4 -3 10 -12 13 -10 4 -14 1 -12 -6 2 -7 31 -27 63 -45 33 -17 61 -36
63 -42 2 -5 10 -7 19 -4 11 4 14 2 9 -5 -4 -7 4 -14 21 -18 49 -10 53 -13 52
-36 l-2 -23 -4 23 c-2 12 -8 22 -13 22 -4 0 -6 -9 -3 -20 4 -14 -2 -23 -19
-31 l-25 -11 5 -406 c2 -224 6 -408 7 -410 2 -2 16 4 32 14 15 10 29 19 31 19
1 1 47 148 102 326 97 317 118 365 144 339 6 -6 11 -16 11 -22 0 -6 27 -27 61
-47 110 -66 123 -76 129 -100 6 -23 7 -23 21 -5 10 13 14 14 11 4 -2 -8 -1
-22 4 -31 5 -11 -4 -60 -26 -139 l-35 -121 0 -309 c0 -285 -1 -309 -17 -314
-10 -2 -51 -10 -92 -16 l-73 -12 43 -29 c24 -16 102 -66 173 -111 71 -45 124
-84 119 -85 -6 -2 -159 23 -341 57 -182 33 -332 60 -335 60 -2 0 -16 -33 -32
-72 -15 -40 -35 -82 -44 -92 -9 -11 -10 -16 -4 -12 9 5 11 2 7 -8 -7 -18 -34
-22 -34 -6 0 6 -7 10 -16 10 -8 0 -13 4 -9 9 6 11 -31 25 -44 16 -12 -7 -34
32 -26 45 4 6 11 7 17 4 7 -4 8 -2 4 4 -4 6 -13 9 -20 6 -9 -3 -17 10 -26 41
-7 26 -19 49 -25 52 -7 2 -37 0 -66 -5 -42 -8 -55 -7 -64 4 -12 16 -68 56
-110 80 -16 9 -47 30 -69 47 -38 30 -38 30 -32 6 4 -13 4 -19 -1 -13 -4 6 -17
16 -28 23 -15 9 -16 11 -2 7 9 -3 17 -1 17 4 0 5 -10 12 -22 16 -12 3 -36 20
-52 36 -22 20 -39 28 -57 25 -22 -3 -25 0 -22 17 4 17 3 18 -6 6 -8 -11 -11
57 -11 245 0 289 8 234 -85 538 l-27 88 -145 -76 c-80 -42 -147 -75 -149 -72
-2 2 43 102 100 223 l103 219 181 3 180 2 11 -32 c35 -109 241 -805 241 -815
0 -10 59 -53 74 -53 3 0 5 185 4 411 l-3 410 -104 41 -104 41 129 53 c71 30
143 60 159 68 37 18 38 18 31 7z"/>
</g>
</svg>
