<?xml version="1.0" standalone="no"?>
<!DOCTYPE svg PUBLIC "-//W3C//DTD SVG 20010904//EN"
 "http://www.w3.org/TR/2001/REC-SVG-20010904/DTD/svg10.dtd">
<svg version="1.0" xmlns="http://www.w3.org/2000/svg"
 width="96.000000pt" height="94.000000pt" viewBox="0 0 96.000000 94.000000"
 preserveAspectRatio="xMidYMid meet">
<metadata>
Created by potrace 1.12, written by Peter Selinger 2001-2015
</metadata>
<g transform="translate(0.000000,94.000000) scale(0.100000,-0.100000)"
fill="#000000" stroke="none">
<path d="M384 895 c-176 -38 -312 -179 -345 -358 -24 -129 19 -264 116 -366
63 -66 126 -104 210 -126 162 -42 324 5 440 126 166 174 162 434 -9 605 -63
62 -135 100 -225 120 -80 17 -107 16 -187 -1z m258 -77 c75 -35 147 -104 189
-181 33 -59 34 -67 34 -167 0 -96 -3 -110 -29 -165 -56 -114 -164 -193 -294
-216 -166 -29 -342 61 -418 216 -26 54 -29 70 -29 160 0 87 3 107 27 157 47
100 137 180 241 214 70 23 210 14 279 -18z"/>
<path d="M422 772 c-35 -10 -31 -27 6 -29 22 -1 39 -9 49 -22 8 -12 24 -21 37
-21 32 0 113 -54 136 -92 38 -63 14 -159 -47 -187 -27 -12 -28 -23 -7 -56 15
-22 14 -24 -10 -40 -48 -32 -28 -112 32 -127 28 -8 115 53 154 108 22 31 31
56 35 103 l6 61 -30 0 c-33 0 -43 17 -43 76 0 34 13 50 45 55 17 4 13 12 -30
60 -28 31 -61 63 -75 72 -58 36 -195 56 -258 39z"/>
<path d="M258 713 c-8 -10 -18 -30 -22 -45 -3 -15 -15 -30 -26 -33 -24 -8 -54
-61 -46 -81 7 -17 102 -19 160 -3 51 14 78 6 99 -31 10 -16 26 -30 36 -30 34
0 44 26 38 92 -7 74 -21 90 -99 108 -29 7 -63 18 -75 26 -30 19 -47 18 -65 -3z"/>
<path d="M152 472 c-18 -12 -5 -87 24 -138 12 -22 42 -58 66 -80 36 -32 43
-35 46 -21 3 13 11 17 30 15 21 -2 29 -11 38 -43 9 -34 16 -40 45 -46 149 -29
233 -7 116 31 -55 17 -65 45 -44 120 25 88 24 93 -15 70 -18 -10 -63 -22 -100
-26 -65 -6 -68 -6 -97 24 -18 18 -31 41 -31 56 0 36 -46 58 -78 38z"/>
</g>
</svg>
